<svg xmlns="http://www.w3.org/2000/svg" xmlns:xlink="http://www.w3.org/1999/xlink" height="48" width="48"><defs><linearGradient id="b"><stop offset="0" stop-color="#73d216"/><stop offset="1" stop-color="#4e9a06"/></linearGradient><linearGradient id="a"><stop offset="0"/><stop offset="1" stop-opacity="0"/></linearGradient><linearGradient id="c"><stop offset="0" stop-color="#fff"/><stop offset="1" stop-color="#fff" stop-opacity="0"/></linearGradient><radialGradient xlink:href="#a" id="d" gradientUnits="userSpaceOnUse" gradientTransform="matrix(1 0 0 .53672 0 16.873)" cx="24.837" cy="36.421" fx="24.837" fy="36.421" r="15.645"/><radialGradient xlink:href="#b" id="e" gradientUnits="userSpaceOnUse" gradientTransform="matrix(0 -.84302 1.02017 0 .606 42.586)" cx="35.293" cy="20.494" fx="35.293" fy="20.494" r="16.956"/><radialGradient xlink:href="#c" id="f" gradientUnits="userSpaceOnUse" gradientTransform="matrix(0 -2.04673 -1.55761 0 44.116 66.933)" cx="15.987" cy="1.535" fx="15.987" fy="1.535" r="17.171"/></defs><g color="#000"><path transform="matrix(1.21447 0 0 .59546 -6.164 16.313)" d="M40.482 36.421a15.645 8.397 0 1 1-31.29 0 15.645 8.397 0 1 1 31.29 0z" style="marker:none" opacity=".205" fill="url(#d)" fill-rule="evenodd" overflow="visible"/><path style="marker:none" d="M14.52 38.5l18.004-.004V25.504l7.996-.007L23.375 5.499 6.529 25.497l7.995.004L14.52 38.5z" fill="url(#e)" fill-rule="evenodd" stroke="#3a7304" stroke-linecap="round" stroke-linejoin="round" stroke-miterlimit="10" overflow="visible" transform="rotate(180 23.514 22)"/><path style="marker:none" d="M39.43 24.993l-7.407.012.003 12.993-15.378-.01c.77-18.34 10.722-10.992 15.381-21.646l7.4 8.651z" opacity=".508" fill="url(#f)" fill-rule="evenodd" overflow="visible" transform="rotate(180 23.514 22)"/><path d="M31.508 6.503L15.506 6.5v12.993l-6.816.016L23.644 36.96 38.35 19.503l-6.84-.005-.002-12.995z" style="marker:none" opacity=".481" fill="none" stroke="#fff" stroke-miterlimit="10" overflow="visible"/></g></svg>